<mxfile host="app.diagrams.net" modified="2020-05-27T05:21:57.897Z" agent="5.0 (X11; Linux x86_64) AppleWebKit/537.36 (KHTML, like Gecko) Chrome/76.0.3809.100 Safari/537.36" etag="G2YMUg1SeXEEE98cSTJO" version="13.1.3" type="github">
  <diagram id="dvXGsRnJWB8gbnkpLMBo" name="Page-1">
    <mxGraphModel dx="875" dy="536" grid="1" gridSize="10" guides="1" tooltips="1" connect="1" arrows="1" fold="1" page="1" pageScale="1" pageWidth="827" pageHeight="1169" math="0" shadow="0">
      <root>
        <mxCell id="0" />
        <mxCell id="1" parent="0" />
        <mxCell id="JokFo_8oz-sf4rnF7_rB-4" value="" style="edgeStyle=orthogonalEdgeStyle;rounded=0;orthogonalLoop=1;jettySize=auto;html=1;entryX=0;entryY=0.5;entryDx=0;entryDy=0;" edge="1" parent="1" source="JokFo_8oz-sf4rnF7_rB-1" target="JokFo_8oz-sf4rnF7_rB-5">
          <mxGeometry relative="1" as="geometry">
            <mxPoint x="540" y="70" as="targetPoint" />
          </mxGeometry>
        </mxCell>
        <mxCell id="JokFo_8oz-sf4rnF7_rB-10" style="edgeStyle=orthogonalEdgeStyle;rounded=0;orthogonalLoop=1;jettySize=auto;html=1;exitX=0.5;exitY=1;exitDx=0;exitDy=0;entryX=0.5;entryY=0;entryDx=0;entryDy=0;" edge="1" parent="1" source="JokFo_8oz-sf4rnF7_rB-1" target="JokFo_8oz-sf4rnF7_rB-9">
          <mxGeometry relative="1" as="geometry" />
        </mxCell>
        <mxCell id="JokFo_8oz-sf4rnF7_rB-1" value="main" style="rounded=0;whiteSpace=wrap;html=1;" vertex="1" parent="1">
          <mxGeometry x="70" y="40" width="120" height="60" as="geometry" />
        </mxCell>
        <mxCell id="JokFo_8oz-sf4rnF7_rB-8" value="" style="edgeStyle=orthogonalEdgeStyle;rounded=0;orthogonalLoop=1;jettySize=auto;html=1;" edge="1" parent="1" source="JokFo_8oz-sf4rnF7_rB-5" target="JokFo_8oz-sf4rnF7_rB-7">
          <mxGeometry relative="1" as="geometry" />
        </mxCell>
        <mxCell id="JokFo_8oz-sf4rnF7_rB-5" value="1.初始化redis&lt;br&gt;2.初始化socket服务端&lt;br&gt;3.有IOnode节点连接时获取并开启保持其生命周期的进程" style="ellipse;whiteSpace=wrap;html=1;" vertex="1" parent="1">
          <mxGeometry x="274" y="20" width="140" height="100" as="geometry" />
        </mxCell>
        <mxCell id="JokFo_8oz-sf4rnF7_rB-7" value="暂是不需要处理其他类型的socket客户端，因为本项目暂时没有这种需求" style="ellipse;whiteSpace=wrap;html=1;" vertex="1" parent="1">
          <mxGeometry x="494" y="20" width="140" height="100" as="geometry" />
        </mxCell>
        <mxCell id="JokFo_8oz-sf4rnF7_rB-12" value="" style="edgeStyle=orthogonalEdgeStyle;rounded=0;orthogonalLoop=1;jettySize=auto;html=1;" edge="1" parent="1" source="JokFo_8oz-sf4rnF7_rB-9" target="JokFo_8oz-sf4rnF7_rB-11">
          <mxGeometry relative="1" as="geometry" />
        </mxCell>
        <mxCell id="JokFo_8oz-sf4rnF7_rB-9" value="&lt;div style=&quot;color: rgb(212 , 212 , 212) ; background-color: rgb(30 , 30 , 30) ; font-family: &amp;#34;droid sans mono&amp;#34; , monospace , monospace , &amp;#34;droid sans fallback&amp;#34; ; font-size: 14px ; line-height: 19px&quot;&gt;&lt;span style=&quot;color: #dcdcaa&quot;&gt;ProcessKeeper&lt;/span&gt;()&lt;/div&gt;" style="rounded=0;whiteSpace=wrap;html=1;" vertex="1" parent="1">
          <mxGeometry x="70" y="297.5" width="120" height="60" as="geometry" />
        </mxCell>
        <mxCell id="JokFo_8oz-sf4rnF7_rB-11" value="1.实例化&lt;span style=&quot;background-color: rgb(30 , 30 , 30) ; color: rgb(212 , 212 , 212) ; font-family: &amp;#34;droid sans mono&amp;#34; , monospace , monospace , &amp;#34;droid sans fallback&amp;#34; ; font-size: 14px&quot;&gt;utils.connTransfer结构体&lt;br&gt;2.调用其相关方法判断应该使用哪种解析器解析数据&lt;br&gt;3.使用解析器解析数据&lt;br&gt;4.基于解析结果生成msg，并反序列化msg&lt;br&gt;5.更新msg至redis&lt;br&gt;&lt;/span&gt;" style="ellipse;whiteSpace=wrap;html=1;" vertex="1" parent="1">
          <mxGeometry x="250" y="237.5" width="369" height="180" as="geometry" />
        </mxCell>
      </root>
    </mxGraphModel>
  </diagram>
</mxfile>
